<?xml version="1.0" encoding="utf-8"?>
<!-- Generator: Adobe Illustrator 26.0.1, SVG Export Plug-In . SVG Version: 6.00 Build 0)  -->
<svg version="1.1" id="Layer_1" xmlns="http://www.w3.org/2000/svg" xmlns:xlink="http://www.w3.org/1999/xlink" x="0px" y="0px"
	 viewBox="0 0 28.16 28.3" style="enable-background:new 0 0 28.16 28.3;" xml:space="preserve">
<style type="text/css">
	.st0{fill:#30363D;}
</style>
<path class="st0" d="M28.16,25.47l-7.05-7.05c1.37-1.91,2.19-4.24,2.19-6.77C23.3,5.23,18.07,0,11.65,0S0,5.23,0,11.65
	S5.22,23.3,11.65,23.3c2.46,0,4.73-0.77,6.61-2.07l7.07,7.07L28.16,25.47z M4,11.65C4,7.43,7.43,4,11.65,4
	c4.22,0,7.65,3.43,7.65,7.65c0,4.22-3.43,7.65-7.65,7.65C7.43,19.3,4,15.86,4,11.65z"/>
<g>
</g>
<g>
</g>
<g>
</g>
<g>
</g>
<g>
</g>
<g>
</g>
<g>
</g>
<g>
</g>
<g>
</g>
<g>
</g>
<g>
</g>
</svg>
