<?xml version="1.0" encoding="utf-8"?>
<!-- Generator: Adobe Illustrator 26.0.1, SVG Export Plug-In . SVG Version: 6.00 Build 0)  -->
<svg version="1.1" id="Layer_1" xmlns="http://www.w3.org/2000/svg" xmlns:xlink="http://www.w3.org/1999/xlink" x="0px" y="0px"
	 viewBox="0 0 28.16 28.3" style="enable-background:new 0 0 28.16 28.3;" xml:space="preserve">
<style type="text/css">
	.st0{fill:#30363D;}
</style>
<g>
	<path class="st0" d="M11.65,1C17.52,1,22.3,5.78,22.3,11.65c0,2.22-0.69,4.36-2,6.18l-0.49,0.69l0.6,0.6l6.35,6.35l-1.41,1.41
		l-6.37-6.37l-0.59-0.59l-0.69,0.48c-1.79,1.24-3.88,1.89-6.05,1.89C5.78,22.3,1,17.52,1,11.65C1,5.78,5.78,1,11.65,1 M11.65,20.3
		c4.77,0,8.65-3.88,8.65-8.65C20.3,6.88,16.42,3,11.65,3C6.88,3,3,6.88,3,11.65C3,16.42,6.88,20.3,11.65,20.3 M11.65,0
		C5.22,0,0,5.23,0,11.65S5.22,23.3,11.65,23.3c2.46,0,4.73-0.77,6.61-2.07l7.07,7.07l2.83-2.83l-7.05-7.05
		c1.37-1.91,2.19-4.24,2.19-6.77C23.3,5.23,18.07,0,11.65,0L11.65,0z M11.65,19.3C7.43,19.3,4,15.86,4,11.65C4,7.43,7.43,4,11.65,4
		c4.22,0,7.65,3.43,7.65,7.65C19.3,15.86,15.87,19.3,11.65,19.3L11.65,19.3z"/>
</g>
<g>
</g>
<g>
</g>
<g>
</g>
<g>
</g>
<g>
</g>
<g>
</g>
<g>
</g>
<g>
</g>
<g>
</g>
<g>
</g>
<g>
</g>
</svg>
